<?xml version="1.0" standalone="no"?><!DOCTYPE svg PUBLIC "-//W3C//DTD SVG 1.1//EN" "http://www.w3.org/Graphics/SVG/1.1/DTD/svg11.dtd"><svg t="1632208825573" class="icon" viewBox="0 0 1024 1024" version="1.1" xmlns="http://www.w3.org/2000/svg" p-id="3530" xmlns:xlink="http://www.w3.org/1999/xlink" width="64" height="64"><defs><style type="text/css"></style></defs><path d="M425.856 886.263467a29.499733 29.499733 0 0 1-19.669333-7.466667L18.4832 534.135467a29.636267 29.636267 0 0 1 0-44.305067L406.186667 145.186133a29.5936 29.5936 0 0 1 31.761066-4.855466 29.636267 29.636267 0 0 1 17.527467 27.016533v215.415467a29.602133 29.602133 0 0 1-29.610667 29.6192 29.610667 29.610667 0 0 1-29.6192-29.6192V233.284267L82.7136 511.982933 396.245333 790.698667V641.237333a29.610667 29.610667 0 0 1 29.6192-29.6192 29.602133 29.602133 0 0 1 29.610667 29.6192v215.415467a29.6448 29.6448 0 0 1-29.6192 29.610667z" fill="#04FDFF" p-id="3531"></path><path d="M985.856 886.263467a29.627733 29.627733 0 0 1-27.477333-18.628267c-0.759467-1.672533-88.507733-196.795733-532.522667-196.795733-16.366933 0-29.6192-13.252267-29.6192-29.6192s13.243733-29.6192 29.6192-29.6192c295.185067 0 446.788267 82.0224 521.361067 149.0176-68.317867-343.287467-501.461333-348.2112-521.4208-348.2624a29.6192 29.6192 0 0 1 0.059733-59.2384c5.896533 0 589.610667 5.7856 589.610667 503.509333a29.678933 29.678933 0 0 1-29.610667 29.636267z" fill="#04FDFF" p-id="3532"></path></svg>