<?xml version="1.0" standalone="no"?><!DOCTYPE svg PUBLIC "-//W3C//DTD SVG 1.1//EN" "http://www.w3.org/Graphics/SVG/1.1/DTD/svg11.dtd"><svg t="1632205700870" class="icon" viewBox="0 0 1024 1024" version="1.1" xmlns="http://www.w3.org/2000/svg" p-id="2558" xmlns:xlink="http://www.w3.org/1999/xlink" width="64" height="64"><defs><style type="text/css"></style></defs><path d="M879.914071 232.077336c10.998926 0 19.998047 8.999121 19.998047 19.998047v519.949224c0 10.998926-8.999121 19.998047-19.998047 19.998047H143.985939c-10.998926 0-19.998047-8.999121-19.998047-19.998047v-519.949224c0-10.998926 8.999121-19.998047 19.998047-19.998047h735.928132m0-59.994141H143.985939c-44.195684 0-79.992188 35.796504-79.992188 79.992188v519.949224c0 44.195684 35.796504 79.992188 79.992188 79.992188h735.928132c44.195684 0 79.992188-35.796504 79.992188-79.992188v-519.949224c0-44.195684-35.796504-79.992188-79.992188-79.992188z" fill="#FF6600" opacity=".502" p-id="2559"></path><path d="M606.540768 661.035446l-229.27761-92.990919-233.277219 161.984181v41.995899h735.928132v-376.963187z" fill="#FF6600" p-id="2560"></path><path d="M290.971585 352.065619c22.097842 0 39.996094 17.898252 39.996094 39.996094s-17.898252 39.996094-39.996094 39.996094-39.996094-17.898252-39.996094-39.996094 17.898252-39.996094 39.996094-39.996094m0-59.994142c-55.19461 0-99.990235 44.795625-99.990236 99.990236s44.795625 99.990235 99.990236 99.990235 99.990235-44.795625 99.990235-99.990235-44.795625-99.990235-99.990235-99.990236z" fill="#FF6600" p-id="2561"></path></svg>