<?xml version="1.0" standalone="no"?><!DOCTYPE svg PUBLIC "-//W3C//DTD SVG 1.1//EN" "http://www.w3.org/Graphics/SVG/1.1/DTD/svg11.dtd"><svg t="1628525173443" class="icon" viewBox="0 0 1024 1024" version="1.1" xmlns="http://www.w3.org/2000/svg" p-id="8617" xmlns:xlink="http://www.w3.org/1999/xlink" width="64" height="64"><defs><style type="text/css"></style></defs><path d="M644.870244 591.022829c-37.66322-82.119805-105.69678-70.631024-105.696781-70.631024L523.588683 437.572683s53.547707-43.157854 73.128585-119.58322c19.68078-76.525268 10.889366-113.589073 6.493659-152.950634s-34.965854-87.414634-48.053073-100.501853c-43.657366 34.965854-67.733854 74.227512-78.62322 102.699707-39.361561 85.21678 8.691512 235.969561 8.691512 235.969561s-74.327415 63.338146-80.821073 74.227512c-6.593561 10.889366-59.042341 61.140293-21.878634 190.014439S559.453659 767.950049 559.453659 767.950049s4.395707 45.85522 8.691512 63.338146c13.08722 72.029659-8.691512 93.908293-30.570147 102.699707-34.965854 8.691512-37.163707-2.197854-45.855219-4.395707 32.768-26.174439 32.768-48.053073 34.965854-69.931707 2.097951-21.878634-37.163707-54.646634-63.338147-50.250927-26.174439 4.395707-50.250927 43.657366-48.053073 61.140293 6.593561 45.85522 21.878634 63.338146 48.053073 78.623219 26.274341 15.285073 50.250927 10.889366 67.733854 4.395707 32.768-13.08722 61.44-43.757268 58.942439-83.018926-2.697366-43.157854-8.192-88.713366-10.889366-106.995513 18.581854-5.494634 49.651512-36.364488 60.041366-53.547707 22.078439-35.864976 17.482927-93.109073 5.694439-118.983805zM531.780683 140.06322c30.570146-30.570146 36.264585-13.386927 47.253854-0.299708s10.889366 52.44878 6.593561 87.414634c-8.691512 102.699707-76.425366 150.75278-76.425366 150.752781-17.582829-17.482927-14.286049-41.159805-17.58283-74.327415 2.197854-93.908293 9.490732-132.870244 40.160781-163.540292z m-77.024781 579.833756c-21.878634-15.285073-74.327415-74.227512-34.965853-161.642147 39.361561-87.314732 81.620293-97.704585 81.620292-97.704585 7.39278 34.366439 11.48878 65.536 11.488781 65.536s-11.688585 1.098927-36.364488 23.477073c-30.070634 27.273366-41.459512 107.095415 6.593561 150.752781s26.174439-6.593561 17.482927-13.08722c-8.791415-6.593561-24.076488-21.878634-19.680781-45.855219 3.29678-56.245073 37.163707-61.140293 43.657366-65.536 6.593561-4.395707 28.372293 148.554927 30.570147 166.037853-52.348878 12.987317-78.523317-6.693463-100.401952-21.978536z m120.182635 17.582829s-24.076488-157.346341-26.174439-170.333659c21.878634-8.791415 48.252878 11.089171 53.547707 18.881561 11.089171 16.384 22.977561 48.852293 22.977561 61.939513-1.798244 83.718244-50.350829 89.512585-50.350829 89.512585z" p-id="8618" fill="#dc28c1" data-spm-anchor-id="a313x.7781069.0.i17" class="selected"></path></svg>