<?xml version="1.0" standalone="no"?><!DOCTYPE svg PUBLIC "-//W3C//DTD SVG 1.1//EN" "http://www.w3.org/Graphics/SVG/1.1/DTD/svg11.dtd"><svg t="1628525203895" class="icon" viewBox="0 0 1024 1024" version="1.1" xmlns="http://www.w3.org/2000/svg" p-id="9026" xmlns:xlink="http://www.w3.org/1999/xlink" width="64" height="64"><defs><style type="text/css"></style></defs><path d="M327.68 904.533333c-13.653333 0-27.306667 0-37.546667-3.413333C238.933333 887.466667 204.8 832.853333 204.8 788.48c0-92.16 95.573333-119.466667 146.773333-119.466667 20.48 0 34.133333 13.653333 34.133334 34.133334s-13.653333 34.133333-34.133334 34.133333c-3.413333 0-78.506667 0-78.506666 51.2 0 13.653333 13.653333 40.96 30.72 44.373333 27.306667 6.826667 58.026667 0 81.92-17.066666 27.306667-20.48 40.96-51.2 40.96-85.333334V256c0-13.653333 10.24-27.306667 23.893333-34.133333l361.813333-102.4c10.24-3.413333 20.48 0 30.72 6.826666 10.24 6.826667 13.653333 17.066667 13.653334 27.306667v474.453333c0 54.613333-23.893333 105.813333-68.266667 139.946667-40.96 30.72-92.16 44.373333-139.946667 30.72-51.2-13.653333-85.333333-68.266667-85.333333-109.226667 0-92.16 95.573333-119.466667 146.773333-119.466666 20.48 0 34.133333 13.653333 34.133334 34.133333s-13.653333 34.133333-34.133334 34.133333c-3.413333 0-78.506667 0-78.506666 51.2 0 13.653333 13.653333 40.96 30.72 44.373334 27.306667 6.826667 58.026667 0 81.92-17.066667 27.306667-20.48 40.96-51.2 40.96-85.333333V197.973333l-293.546667 81.92v447.146667c0 54.613333-23.893333 105.813333-68.266667 139.946667-23.893333 23.893333-61.44 37.546667-95.573333 37.546666z" fill="#51f9c7" p-id="9027" data-spm-anchor-id="a313x.7781069.0.i19" class="selected"></path></svg>