<?xml version="1.0" standalone="no"?><!DOCTYPE svg PUBLIC "-//W3C//DTD SVG 1.1//EN" "http://www.w3.org/Graphics/SVG/1.1/DTD/svg11.dtd"><svg t="1628525419525" class="icon" viewBox="0 0 1024 1024" version="1.1" xmlns="http://www.w3.org/2000/svg" p-id="10080" xmlns:xlink="http://www.w3.org/1999/xlink" width="64" height="64"><defs><style type="text/css"></style></defs><path d="M232.448 263.509333c31.914667 17.749333 62.976 17.066667 89.258667-1.792l-19.029334-29.525333c-24.832 18.005333-52.906667 3.242667-72.021333-12.373333a22.784 22.784 0 0 0-28.245333-0.768A26.197333 26.197333 0 0 0 192.938667 247.466667l65.706666 241.664c-35.157333-11.690667-70.4 0-80.213333 28.416-10.24 29.269333 11.264 64.768 47.957333 79.36s74.752 2.56 85.333334-26.709334a54.442667 54.442667 0 0 0-9.386667-49.664zM773.376 233.728v-19.2l-330.752 136.533333 0.597333 1.536h-2.986666v281.6a77.824 77.824 0 0 0-13.568-5.717333c-34.816-11.178667-68.266667 4.352-75.264 34.133333s15.957333 63.914667 50.773333 75.008 68.266667-4.266667 75.264-34.133333a50.432 50.432 0 0 0 0-20.224h2.389333V421.376l256-107.008L733.866667 527.274667a80.213333 80.213333 0 0 0-13.141334-6.144c-34.816-12.544-68.266667 4.778667-75.264 38.656s15.957333 71.338667 51.2 83.797333 68.266667-4.864 75.264-38.656a62.890667 62.890667 0 0 0 0-22.613333h2.389334V233.728z" fill="#e7378c" p-id="10081" data-spm-anchor-id="a313x.7781069.0.i25" class="selected"></path></svg>