<?xml version="1.0" standalone="no"?><!DOCTYPE svg PUBLIC "-//W3C//DTD SVG 1.1//EN" "http://www.w3.org/Graphics/SVG/1.1/DTD/svg11.dtd"><svg t="1628525125266" class="icon" viewBox="0 0 1024 1024" version="1.1" xmlns="http://www.w3.org/2000/svg" p-id="8036" xmlns:xlink="http://www.w3.org/1999/xlink" width="64" height="64"><defs><style type="text/css"></style></defs><path d="M905.8 0H512c-65.2 0-118.2 53-118.2 118.2v493.5c-41.8-37.5-97.1-60.3-157.5-60.3C106 551.4 0 657.4 0 787.7S106 1024 236.3 1024c122.8 0 224.1-94.2 235.3-214.2 0.7-2.9 1-5.9 1-9V315.1c0-21.7 21.4-26.3 39.4-26.3h393.8c18 0 39.4 4.6 39.4 26.3v296.6c-41.8-37.5-97.1-60.3-157.5-60.3-130.3 0-236.3 106-236.3 236.3s106 236.3 236.3 236.3c122.9 0 224.1-94.2 235.3-214.2 0.7-2.9 1-5.9 1-9V118.2C1024 53 971 0 905.8 0zM236.3 945.2c-86.9 0-157.5-70.7-157.5-157.5s70.7-157.5 157.5-157.5 157.5 70.7 157.5 157.5-70.6 157.5-157.5 157.5z m669.5-735.1H512c-14.1 0-27.3 1.8-39.4 5.1v-97c0-21.7 17.7-39.4 39.4-39.4h393.8c21.7 0 39.4 17.7 39.4 39.4v97c-12.1-3.4-25.3-5.1-39.4-5.1zM787.7 945.2c-86.9 0-157.5-70.7-157.5-157.5s70.7-157.5 157.5-157.5 157.5 70.7 157.5 157.5-70.6 157.5-157.5 157.5z" fill="#27D0D8" p-id="8037"></path></svg>