<?xml version="1.0" standalone="no"?><!DOCTYPE svg PUBLIC "-//W3C//DTD SVG 1.1//EN" "http://www.w3.org/Graphics/SVG/1.1/DTD/svg11.dtd"><svg t="1628525449497" class="icon" viewBox="0 0 1024 1024" version="1.1" xmlns="http://www.w3.org/2000/svg" p-id="10347" xmlns:xlink="http://www.w3.org/1999/xlink" width="64" height="64"><defs><style type="text/css"></style></defs><path d="M774.971358 398.698511L765.58597 362.781352c-46.746453-139.968626-186.263858-184.639464-199.800476-196.732176-19.673218-17.687847-21.387856-35.556182-21.387856-35.556182v-16.42443c0-1.624394-0.721953-3.248788-2.075615-4.512205-1.353662-1.173174-3.158544-1.895126-4.873182-1.895127h-14.439059c-1.804882 0-3.519521 0.631709-4.873182 1.895127-1.353662 1.173174-2.075615 2.887812-2.075615 4.512205v642.899093c-32.307394-21.4781-87.175817-28.697629-144.841808-15.702477-82.392879 18.500044-138.885697 71.383097-126.161276 117.949062 12.724421 46.565965 89.702653 69.217238 172.185776 50.62695 79.866044-18.048823 135.45642-68.314797 127.153961-113.888077V420.176611s12.363444 2.165859 51.529391 22.200052c122.461267 62.809906 172.27602 128.236891 139.788138 335.617873-0.812197 5.685379 4.151229 5.956112 5.956112 0.180488 25.268353-79.414823 29.690315-144.932053 21.4781-198.80779 19.763462-71.563585 21.387856-131.214947 11.821979-180.668723z m-18.139068 149.354014c-39.075703-148.451573-177.510179-195.829735-191.227284-208.283423-19.402485-17.778091-21.207368-35.556182-21.207368-35.556182v-57.756235s12.092712 2.165859 51.980612 22.200052c112.985635 56.673306 173.268705 114.610029 160.45404 279.395788z" p-id="10348" data-spm-anchor-id="a313x.7781069.0.i31" class="selected" fill="#f4ea2a"></path></svg>