<?xml version="1.0" standalone="no"?><!DOCTYPE svg PUBLIC "-//W3C//DTD SVG 1.1//EN" "http://www.w3.org/Graphics/SVG/1.1/DTD/svg11.dtd"><svg t="1628525143590" class="icon" viewBox="0 0 1024 1024" version="1.1" xmlns="http://www.w3.org/2000/svg" p-id="8183" xmlns:xlink="http://www.w3.org/1999/xlink" width="64" height="64"><defs><style type="text/css"></style></defs><path d="M745.173333 162.816a21.333333 21.333333 0 0 1-8.547555 25.955556l-3.441778 1.735111L597.333333 244.266667l-0.085333 415.530666 0.085333 1.536a64 64 0 0 1-57.841777 63.715556L533.333333 725.333333a64 64 0 1 1 21.333334-124.359111l-0.042667-236.686222L426.666667 414.933333l-0.085334 372.864 0.085334 1.536a64 64 0 0 1-57.841778 63.715556L362.666667 853.333333a64 64 0 1 1 21.333333-124.359111v-328.533333a21.333333 21.333333 0 0 1 10.168889-18.176l3.313778-1.649778 149.333333-59.121778c2.574222-1.009778 5.233778-1.493333 7.836444-1.493333L554.666667 229.788444a21.333333 21.333333 0 0 1 10.168889-18.190222l3.313777-1.649778 149.333334-59.121777a21.333333 21.333333 0 0 1 27.690666 11.989333z" p-id="8184" fill="#1296db"></path></svg>